<?xml version="1.0" standalone="no"?>
<!DOCTYPE svg PUBLIC "-//W3C//DTD SVG 20010904//EN"
 "http://www.w3.org/TR/2001/REC-SVG-20010904/DTD/svg10.dtd">
<svg version="1.0" xmlns="http://www.w3.org/2000/svg"
 width="1260.000000pt" height="1260.000000pt" viewBox="0 0 1260.000000 1260.000000"
 preserveAspectRatio="xMidYMid meet">
<metadata>
Created by potrace 1.11, written by Peter Selinger 2001-2013
</metadata>
<g transform="translate(0.000000,1260.000000) scale(0.100000,-0.100000)"
fill="#000000" stroke="none">
<path d="M6104 10201 c-18 -11 -35 -24 -38 -30 -4 -6 -24 -11 -45 -11 -72 0
-149 -73 -134 -128 3 -12 -6 -31 -26 -52 -16 -18 -28 -36 -26 -40 2 -3 0 -11
-4 -18 -5 -9 -14 -1 -26 22 -54 100 -227 119 -350 37 -22 -14 -42 -29 -43 -34
-2 -4 -10 -13 -17 -21 -76 -75 -103 -268 -57 -399 27 -75 83 -173 122 -215 48
-50 130 -109 180 -128 25 -9 50 -21 55 -27 7 -7 7 -8 0 -4 -5 3 -35 8 -65 12
-202 24 -410 89 -614 191 -81 41 -223 127 -236 143 -18 22 -92 71 -107 71 -17
0 -62 -25 -73 -41 -5 -7 -113 -128 -160 -179 -14 -15 -61 -67 -105 -115 -44
-49 -91 -100 -105 -115 -14 -15 -63 -70 -110 -121 -47 -51 -93 -101 -103 -112
-10 -10 -21 -33 -23 -50 -5 -26 1 -39 28 -68 53 -56 90 -107 131 -176 20 -36
37 -66 37 -69 0 -2 9 -23 19 -47 24 -53 48 -137 56 -202 4 -27 9 -61 11 -75 6
-37 6 -228 -1 -285 -18 -165 -59 -359 -119 -560 -43 -143 -65 -261 -81 -425
-2 -19 -4 -36 -4 -38 -2 -6 -288 191 -301 208 -3 3 -14 13 -26 21 -99 68 -291
258 -374 370 -240 323 -255 676 -39 891 141 140 419 175 578 73 104 -66 159
-169 165 -302 9 -206 -113 -354 -292 -355 -84 0 -143 24 -206 85 -86 84 -112
202 -66 300 29 61 87 111 128 110 40 -1 40 -1 24 -47 -22 -61 -3 -113 52 -140
116 -57 208 100 129 221 -54 83 -169 119 -266 82 -82 -30 -133 -76 -173 -156
-123 -243 33 -538 314 -593 102 -21 209 2 307 63 56 36 67 46 111 102 172 220
122 576 -106 746 -132 98 -307 134 -483 98 -169 -34 -316 -132 -409 -271 -17
-27 -33 -48 -35 -48 -7 0 20 45 50 83 24 31 28 43 23 72 -12 61 -66 58 -128
-7 -128 -136 -191 -358 -163 -582 11 -82 55 -218 97 -296 43 -80 136 -215 178
-257 l25 -26 -25 8 c-113 35 -194 -11 -204 -115 -11 -125 90 -229 223 -230 60
0 64 -5 11 -13 -19 -3 -91 -18 -160 -33 -165 -36 -306 -39 -365 -7 -115 62
-179 208 -131 301 18 35 70 51 104 33 23 -13 72 -14 88 -3 19 12 34 49 29 72
-10 52 -64 82 -149 83 -92 1 -147 -35 -193 -125 -24 -46 -28 -65 -28 -143 0
-82 3 -97 32 -155 61 -124 170 -204 323 -236 112 -24 252 -11 445 42 11 3 -16
-18 -60 -48 -44 -29 -89 -61 -100 -71 -38 -35 -210 -146 -260 -167 -66 -29
-172 -48 -228 -43 -40 4 -47 2 -62 -21 -19 -28 -14 -55 14 -80 14 -13 41 -18
106 -20 165 -6 295 39 493 171 105 69 129 75 66 18 -21 -19 -92 -131 -123
-192 -100 -201 -142 -441 -105 -603 16 -70 70 -191 104 -230 61 -71 113 -118
193 -171 49 -32 93 -59 98 -61 5 -2 12 -16 15 -31 18 -103 82 -226 153 -297
133 -134 299 -129 446 14 117 113 147 286 52 294 -30 2 -51 -20 -67 -73 -31
-97 -107 -166 -197 -181 -47 -7 -85 9 -133 58 -34 33 -93 145 -84 159 2 4 18
4 35 -1 43 -12 183 -4 253 15 178 48 339 190 427 378 29 63 72 234 63 249 -3
4 -1 8 4 8 5 0 26 -27 46 -60 20 -33 42 -65 49 -72 7 -7 25 -31 42 -53 16 -22
59 -69 96 -105 l67 -66 -67 0 c-181 -1 -307 -146 -288 -331 11 -107 90 -214
197 -268 29 -15 62 -36 74 -47 79 -76 232 -141 386 -163 76 -12 246 -6 332 10
13 3 36 -8 62 -29 79 -65 238 -122 273 -99 6 5 14 20 18 34 7 28 -26 79 -51
79 -16 0 -127 50 -122 55 4 4 71 15 138 24 43 5 69 1 115 -15 116 -40 167 -88
179 -171 l4 -31 -32 13 c-107 43 -168 -92 -81 -179 70 -71 184 -54 249 36 34
47 56 131 45 171 -10 36 1 28 26 -20 28 -57 45 -73 74 -73 33 0 42 7 67 48
l21 34 5 -44 c19 -167 190 -256 294 -152 41 42 50 74 35 124 -8 28 -19 41 -43
51 -36 15 -75 14 -94 -2 -21 -18 -7 57 19 96 24 37 88 83 127 91 14 3 36 10
50 16 29 13 67 12 163 -3 65 -10 67 -12 47 -26 -11 -8 -44 -23 -73 -33 -83
-29 -112 -83 -62 -116 30 -20 76 -13 153 21 50 23 140 81 153 99 4 4 15 6 25
3 78 -23 284 -24 384 -2 168 36 248 73 345 162 14 12 34 24 46 28 66 21 152
104 191 184 32 65 32 196 0 261 -49 100 -146 162 -253 164 l-58 1 42 41 c77
74 133 141 183 217 27 42 52 77 55 77 4 0 7 -10 7 -22 0 -95 93 -305 169 -386
7 -7 18 -21 25 -31 22 -29 119 -101 178 -131 31 -16 85 -36 121 -46 72 -19
214 -27 260 -14 28 8 30 7 23 -13 -24 -79 -87 -162 -143 -191 -36 -19 -104
-12 -147 15 -67 41 -101 84 -124 154 -16 51 -37 75 -65 75 -54 0 -74 -85 -40
-166 19 -45 63 -114 85 -130 8 -7 26 -21 39 -33 13 -12 49 -33 80 -48 118 -57
251 -27 346 79 52 58 108 167 130 252 8 32 16 60 17 61 2 1 32 19 68 40 36 22
70 44 77 50 6 5 26 21 44 35 18 14 44 38 58 54 15 16 32 35 39 42 25 26 81
127 96 173 25 76 29 101 31 207 2 81 -3 122 -25 210 -51 202 -110 322 -229
463 l-45 54 97 -67 c198 -137 355 -197 507 -191 99 4 125 11 139 41 27 59 2
81 -95 82 -80 0 -133 13 -209 48 -49 22 -165 94 -192 118 -22 21 -124 91 -185
129 -34 20 -58 37 -54 37 4 0 42 -9 85 -20 324 -83 573 -19 687 176 71 120 71
256 0 366 -40 63 -92 91 -170 91 -111 0 -176 -58 -144 -129 13 -28 46 -39 86
-29 89 22 115 13 136 -50 36 -104 -49 -246 -173 -290 -69 -24 -236 -7 -471 50
-8 2 -24 4 -35 6 -11 1 10 5 47 9 108 13 184 82 202 185 8 42 -11 105 -41 137
-31 32 -101 47 -140 29 -14 -7 -27 -10 -29 -8 -3 2 20 34 49 71 152 191 223
364 234 568 12 220 -52 409 -180 531 -43 41 -61 45 -95 21 -27 -19 -29 -60 -3
-88 18 -20 61 -86 49 -76 -3 3 -28 34 -56 68 -161 201 -428 290 -670 223 -200
-55 -320 -174 -380 -375 -27 -88 -25 -233 3 -316 63 -185 220 -307 407 -316
207 -9 390 134 438 345 37 159 -41 336 -176 397 -90 42 -174 37 -246 -15 -102
-74 -109 -230 -11 -276 91 -44 185 55 139 146 -16 33 -9 50 18 45 127 -23 196
-187 137 -322 -41 -91 -154 -173 -247 -178 -95 -4 -169 25 -233 93 -61 66 -87
144 -85 262 3 174 120 319 286 353 169 34 352 -17 463 -129 119 -121 169 -291
140 -480 -18 -116 -98 -289 -189 -412 -51 -68 -227 -248 -304 -311 -116 -95
-371 -276 -378 -269 -2 1 -5 34 -8 72 -4 39 -8 84 -11 100 -18 101 -40 197
-66 287 -74 254 -97 362 -116 543 -12 116 -7 306 11 396 33 163 122 341 227
456 56 61 53 92 -14 164 -55 59 -75 81 -222 244 -49 54 -97 107 -105 115 -8 9
-58 63 -110 121 -181 198 -167 192 -277 117 -100 -69 -288 -165 -423 -216
-113 -43 -337 -107 -410 -117 l-45 -6 50 29 c269 158 363 536 183 733 -95 104
-277 124 -364 41 l-22 -21 -21 23 c-14 15 -21 35 -21 62 0 31 -6 46 -27 66
-35 31 -88 53 -124 50 -16 -1 -31 4 -36 12 -8 15 -61 46 -78 46 -5 0 -24 -9
-41 -19z m-206 -437 c23 -16 23 -16 -26 -40 -31 -16 -56 -36 -67 -58 -14 -25
-23 -32 -38 -28 -18 5 -18 6 5 19 34 21 64 72 73 123 7 40 8 42 19 22 7 -12
22 -29 34 -38z m521 -39 c6 -19 26 -44 42 -56 22 -16 27 -24 18 -30 -8 -5 -23
5 -41 29 -16 20 -41 44 -55 53 -24 16 -24 17 -7 28 27 15 29 14 43 -24z m-799
-95 c35 0 39 -19 10 -45 -11 -10 -20 -23 -20 -29 -1 -6 -7 -24 -14 -41 l-14
-30 -25 55 c-14 30 -28 79 -32 107 l-6 53 36 -35 c24 -24 45 -35 65 -35z
m1104 38 c-8 -55 -15 -81 -36 -130 -21 -50 -38 -62 -38 -28 0 24 -44 96 -62
102 -7 3 8 10 33 16 26 6 57 24 74 41 17 17 31 31 32 31 1 0 -1 -15 -3 -32z
m-890 -253 c34 -22 89 -29 126 -16 40 14 39 -4 -2 -30 -27 -17 -44 -19 -97
-16 -75 6 -91 20 -91 79 0 38 0 38 19 19 11 -11 31 -27 45 -36z m642 18 c-3
-21 -5 -43 -6 -50 -1 -29 -116 -43 -167 -21 -56 25 -72 58 -17 38 51 -20 149
12 177 57 14 23 19 14 13 -24z m-301 -229 c31 -15 89 -34 128 -44 l72 -18 -85
-3 c-47 -1 -139 -2 -205 -1 -271 0 -308 3 -190 16 67 7 172 39 201 61 10 8 20
15 20 15 1 0 27 -12 59 -26z m2869 -1894 c-9 -42 18 -80 56 -80 33 0 44 -12
35 -39 -9 -28 -61 -46 -125 -42 -30 2 -81 4 -113 5 -49 1 -55 3 -40 13 10 7
29 21 43 30 14 10 52 45 85 79 33 33 61 62 62 62 1 1 0 -11 -3 -28z m-5780
-55 c17 -17 52 -46 79 -64 26 -19 47 -35 47 -35 0 -1 -28 -1 -62 -2 -35 0 -85
-2 -113 -5 -58 -4 -111 14 -120 42 -9 27 2 39 34 39 38 0 65 31 59 70 l-5 30
25 -22 c14 -13 39 -37 56 -53z m744 -581 l72 -15 0 -45 c0 -24 1 -47 2 -51 1
-5 9 -51 19 -103 20 -109 26 -134 34 -160 5 -17 -1 -15 -52 11 -152 77 -370
59 -518 -42 -128 -89 -220 -249 -250 -439 -3 -19 -9 -57 -13 -85 -5 -27 -7
-89 -6 -136 2 -87 2 -87 -19 -70 -151 119 -205 284 -171 520 35 248 180 458
389 564 88 44 153 63 230 66 33 2 61 4 62 5 7 7 158 -7 221 -20z m4597 0 c59
-15 183 -72 211 -97 7 -6 30 -25 51 -41 103 -80 204 -247 244 -401 29 -115 29
-287 0 -373 -12 -35 -34 -82 -48 -105 -23 -37 -110 -127 -123 -127 -3 0 -6 49
-7 109 -6 298 -107 528 -283 641 -142 90 -381 104 -508 30 -31 -19 -33 -19
-28 -3 15 52 41 201 51 288 4 32 8 62 11 66 4 8 116 28 174 32 74 5 197 -5
255 -19z m-4634 -486 c46 -20 96 -81 113 -138 22 -70 14 -210 -17 -291 -33
-88 -42 -104 -102 -178 -62 -77 -162 -142 -242 -158 -46 -9 -160 -6 -211 6
-57 14 -55 10 -55 201 1 163 24 275 79 382 25 47 104 127 149 151 88 45 213
56 286 25z m4553 -17 c157 -74 244 -255 250 -519 1 -60 0 -131 -3 -158 -6 -47
-8 -50 -46 -62 -56 -18 -180 -18 -245 1 -202 59 -356 291 -345 520 3 80 5 87
27 137 20 46 64 86 113 104 63 23 175 12 249 -23z m-3858 -830 c13 -1 102 -61
141 -94 51 -44 89 -83 126 -128 l37 -46 -47 -6 c-137 -18 -186 -22 -268 -21
-97 0 -165 17 -165 40 0 8 -9 33 -21 56 -38 73 -22 155 34 181 45 21 84 25
163 18z m3058 -16 c60 -28 75 -108 36 -184 -11 -22 -20 -47 -20 -55 0 -37
-143 -51 -325 -32 -66 7 -150 18 -152 20 -7 7 116 138 166 176 18 14 39 31 47
38 7 7 31 23 53 35 47 27 140 28 195 2z m-2667 -41 c220 -74 414 -166 572
-271 121 -82 127 -87 76 -78 -23 4 -51 19 -69 36 -70 68 -233 117 -396 118
-41 0 -79 0 -85 1 -5 0 -21 17 -35 37 -29 43 -72 94 -117 139 -53 52 -50 53
54 18z m2176 -11 c-37 -36 -127 -144 -142 -170 -5 -9 -41 -14 -116 -17 -117
-5 -139 -8 -225 -32 -69 -20 -117 -45 -157 -82 -25 -24 -83 -49 -83 -36 0 6
124 91 180 124 56 33 264 140 273 140 2 0 22 7 43 17 47 20 246 91 257 92 5 1
-9 -16 -30 -36z m-1898 -344 c-56 -11 -75 -11 -75 0 0 11 54 18 90 12 21 -4
19 -6 -15 -12z m1635 1 c0 -11 -40 -11 -85 0 -25 6 -20 8 28 9 32 0 57 -3 57
-9z m-1875 -30 c0 -12 -22 -16 -125 -18 -130 -4 -155 2 -60 13 30 3 71 10 90
14 55 12 95 8 95 -9z m2160 4 c17 -2 50 -7 75 -10 81 -10 57 -16 -55 -13 -140
4 -158 7 -142 25 8 10 24 13 52 8 22 -3 54 -7 70 -10z"/>
<path d="M702 4034 c-246 -63 -406 -301 -365 -541 38 -220 209 -359 453 -369
103 -4 176 9 250 44 65 31 129 91 134 126 8 43 -2 49 -32 18 -96 -97 -181
-133 -299 -126 -73 4 -120 23 -168 69 -114 112 -139 419 -48 588 116 212 426
187 515 -43 38 -100 48 -81 48 95 0 131 -2 155 -15 155 -8 0 -15 -6 -15 -13 0
-8 -9 -22 -20 -32 -23 -20 -39 -19 -165 19 -100 30 -183 33 -273 10z"/>
<path d="M2807 4044 c-1 -1 -22 -4 -47 -7 -168 -20 -320 -158 -366 -332 -8
-29 -12 -86 -10 -140 11 -282 228 -465 526 -442 92 8 159 29 228 75 151 99
226 280 197 477 -27 181 -186 336 -370 361 -43 5 -154 11 -158 8z m161 -74
c43 -24 82 -81 108 -160 14 -43 18 -88 18 -210 1 -85 -2 -170 -6 -188 -33
-165 -124 -252 -249 -239 -139 15 -210 144 -213 387 -1 156 9 223 44 299 48
101 112 144 207 137 29 -3 70 -14 91 -26z"/>
<path d="M4931 4015 c-11 -20 -21 -38 -21 -41 0 -2 -35 -82 -79 -177 -111
-243 -123 -268 -181 -397 -70 -155 -97 -197 -142 -218 -21 -9 -40 -23 -42 -30
-4 -10 26 -12 144 -10 89 2 151 7 153 13 1 6 -17 13 -40 16 -55 7 -73 24 -73
66 0 46 48 153 69 154 76 4 295 3 301 -1 15 -10 77 -173 73 -191 -6 -20 -28
-30 -73 -31 -18 -1 -30 -6 -30 -15 0 -10 42 -13 220 -13 217 0 257 6 193 31
-61 23 -64 28 -213 365 -57 126 -117 261 -135 299 -17 39 -45 99 -60 135 -16
36 -32 69 -35 73 -4 5 -17 -8 -29 -28z m-27 -355 c16 -36 43 -99 61 -142 l34
-76 -132 1 c-112 2 -132 4 -129 17 7 35 126 280 132 273 4 -4 19 -37 34 -73z"/>
<path d="M7953 4041 c-157 -41 -243 -215 -172 -352 38 -76 103 -125 283 -214
90 -45 160 -108 168 -149 8 -39 -7 -88 -34 -114 -79 -73 -230 -52 -319 45 -36
39 -87 131 -93 166 -2 17 -16 37 -25 37 -4 0 -7 -76 -7 -170 0 -181 3 -192 44
-145 27 31 59 32 132 4 30 -11 84 -23 120 -26 292 -25 453 288 241 466 -27 23
-107 71 -178 108 -190 99 -223 132 -209 206 21 112 183 129 302 32 40 -33 94
-124 94 -159 0 -16 18 -31 27 -23 4 5 4 87 0 270 -1 36 -20 35 -34 -3 -14 -37
-32 -38 -109 -4 -63 28 -173 40 -231 25z"/>
<path d="M9742 4038 c-7 -7 -12 -15 -12 -20 0 -4 -15 -40 -34 -80 -18 -40 -45
-98 -59 -128 -14 -31 -44 -95 -66 -144 -23 -48 -41 -89 -41 -90 0 -4 -83 -182
-131 -282 -33 -69 -70 -111 -105 -120 -12 -3 -25 -12 -28 -20 -4 -12 20 -14
150 -14 119 0 155 3 152 12 -3 7 -24 16 -47 20 -24 4 -49 13 -57 19 -22 18
-16 79 14 144 l29 60 157 -1 158 0 38 -90 c47 -109 41 -131 -35 -137 -16 -1
-30 -8 -33 -15 -3 -9 46 -12 217 -12 192 0 220 2 215 15 -4 8 -14 15 -23 15
-26 0 -67 48 -99 115 -16 33 -98 215 -182 405 -85 190 -156 348 -160 353 -3 4
-11 2 -18 -5z m-16 -429 c31 -68 60 -133 64 -145 8 -20 5 -20 -126 -21 -74 0
-134 1 -134 4 0 2 25 59 56 126 31 67 60 133 65 146 5 13 12 22 14 19 3 -3 30
-61 61 -129z"/>
<path d="M1290 4020 c0 -5 1 -10 3 -10 1 -1 20 -3 42 -6 25 -3 48 -14 62 -30
22 -24 22 -28 23 -378 0 -217 -3 -364 -10 -380 -11 -30 -59 -55 -96 -50 -15 1
-24 -3 -24 -12 0 -12 37 -14 238 -12 153 2 235 7 232 13 -3 5 -18 10 -33 11
-37 2 -75 23 -83 46 -4 15 -7 219 -5 331 l1 28 158 -3 157 -3 0 -154 c1 -85
-1 -168 -3 -183 -5 -34 -36 -57 -82 -61 -18 -1 -35 -8 -38 -15 -3 -9 50 -12
233 -12 175 0 236 3 233 12 -2 6 -15 13 -29 15 -54 7 -69 15 -82 41 -18 36
-17 725 1 758 13 25 56 43 90 38 14 -3 22 1 22 11 0 13 -33 15 -235 15 -185 0
-235 -3 -235 -13 0 -8 14 -13 35 -14 41 -1 84 -26 86 -51 1 -9 3 -86 4 -169 2
-149 1 -153 -19 -154 -12 -1 -83 -2 -159 -3 l-137 -1 -1 25 c-3 117 3 305 11
320 11 21 41 33 84 35 16 0 31 6 34 13 3 9 -53 12 -237 12 -154 0 -241 -4
-241 -10z"/>
<path d="M3420 4017 c0 -8 10 -13 23 -12 30 3 73 -13 89 -32 10 -13 13 -97 14
-387 l1 -370 -23 -23 c-21 -21 -37 -26 -86 -26 -10 0 -18 -6 -18 -13 0 -12 43
-14 240 -14 187 0 238 3 235 13 -3 6 -21 13 -41 14 -49 3 -84 27 -85 61 -4 85
-5 319 -1 330 3 9 44 12 161 12 l157 0 -2 -167 c0 -93 -4 -178 -8 -191 -9 -27
-32 -40 -80 -44 -21 -1 -36 -7 -36 -15 0 -10 49 -13 235 -13 192 0 235 2 235
14 0 7 -8 13 -17 13 -46 0 -63 4 -84 22 l-24 19 -1 364 c-1 199 2 373 7 386
10 26 59 50 95 46 15 -1 24 3 24 12 0 12 -37 14 -237 12 -143 -2 -237 -7 -236
-12 2 -6 18 -11 36 -12 45 -2 84 -29 89 -62 8 -63 2 -304 -9 -310 -9 -5 -231
-8 -296 -3 -10 1 -13 35 -12 159 2 167 9 198 48 207 31 8 59 13 75 14 7 1 10
6 7 11 -4 6 -95 10 -241 10 -188 0 -234 -3 -234 -13z"/>
<path d="M5462 4018 c3 -7 15 -15 29 -17 33 -4 77 -37 92 -69 9 -20 12 -104
11 -337 -1 -170 -2 -322 -3 -337 -2 -40 -41 -79 -86 -87 -21 -3 -40 -12 -43
-19 -3 -9 33 -12 157 -12 125 0 161 3 161 13 0 7 -14 14 -32 15 -39 3 -73 24
-90 54 -9 17 -13 104 -13 330 -1 170 2 305 5 300 7 -7 158 -190 374 -452 70
-85 148 -179 174 -209 26 -30 49 -58 50 -63 2 -4 10 -8 17 -8 11 0 14 70 15
400 0 219 4 410 9 424 13 32 49 56 83 56 18 0 28 5 28 15 0 13 -23 15 -151 15
-111 0 -150 -3 -147 -12 2 -6 17 -13 32 -15 44 -6 75 -32 86 -72 5 -20 10
-130 10 -245 l0 -209 -22 29 c-13 16 -30 38 -40 49 -9 11 -87 108 -174 215
-87 107 -168 206 -181 220 -13 14 -23 28 -23 32 0 5 -75 8 -166 8 -128 0 -165
-3 -162 -12z"/>
<path d="M6803 4018 c4 -13 8 -15 51 -17 13 0 34 -10 47 -20 l24 -19 1 -354
c0 -194 -3 -368 -8 -385 -10 -37 -34 -53 -83 -56 -20 -1 -35 -7 -35 -14 0 -10
85 -13 390 -13 215 0 390 3 391 8 0 4 2 14 4 22 7 33 19 115 30 203 6 48 5 56
-8 52 -8 -4 -19 -23 -26 -44 -18 -62 -74 -126 -135 -156 -44 -22 -74 -28 -153
-32 -88 -5 -101 -3 -123 15 -24 20 -24 21 -25 187 0 153 2 168 18 171 30 4 86
-16 108 -39 26 -27 59 -101 59 -132 0 -24 16 -42 27 -31 11 11 6 447 -5 458
-13 13 -12 14 -31 -67 -7 -27 -19 -60 -27 -73 -22 -34 -74 -62 -114 -62 l-36
0 1 178 0 177 105 -1 c58 0 122 -6 143 -13 58 -20 101 -69 122 -139 30 -98 43
-72 42 79 l-1 129 -379 0 c-298 0 -378 -3 -374 -12z"/>
<path d="M8493 3910 c0 -88 3 -120 12 -120 7 0 18 20 25 44 14 52 62 113 99
128 14 6 56 12 94 15 l67 4 -2 -387 -3 -387 -25 -19 c-14 -10 -39 -20 -55 -22
-17 -2 -33 -4 -37 -5 -5 0 -8 -6 -8 -11 0 -7 81 -9 238 -8 152 2 236 7 234 13
-2 6 -18 11 -35 12 -41 3 -75 21 -82 44 -5 13 -8 529 -6 733 l1 39 75 -6 c61
-4 82 -10 110 -32 36 -26 67 -77 79 -127 3 -16 12 -28 19 -28 10 0 13 29 13
120 l0 120 -406 0 -407 0 0 -120z"/>
<path d="M10190 3910 c0 -95 3 -120 14 -120 8 0 16 15 20 38 7 48 48 107 87
128 17 8 63 18 103 20 l71 5 -1 -373 c0 -205 -4 -383 -8 -396 -9 -28 -36 -42
-80 -44 -20 -1 -37 -7 -40 -15 -4 -11 38 -13 234 -13 200 0 240 2 240 14 0 9
-9 13 -24 12 -36 -4 -85 20 -95 48 -6 13 -10 191 -10 396 l0 372 75 -5 c94 -6
134 -31 169 -104 14 -28 25 -59 25 -67 0 -9 7 -16 15 -16 13 0 15 20 15 120
l0 120 -405 0 -405 0 0 -120z"/>
<path d="M11075 4021 c-7 -13 5 -19 29 -15 35 5 83 -22 93 -52 14 -45 10 -724
-5 -751 -12 -22 -38 -33 -86 -38 -36 -4 -37 -5 -31 -15 7 -12 785 -14 786 -2
0 4 2 18 4 32 27 181 33 236 26 243 -4 4 -22 -21 -40 -56 -61 -126 -128 -166
-287 -174 -98 -5 -101 -5 -120 19 -18 23 -20 41 -19 189 l0 164 25 1 c30 0 68
-14 94 -35 25 -21 66 -109 66 -143 0 -18 5 -28 15 -28 13 0 15 33 15 236 0
178 -3 235 -12 232 -6 -2 -17 -26 -23 -54 -24 -102 -73 -154 -146 -154 l-37 0
1 180 0 180 111 -4 c117 -4 162 -17 205 -57 25 -24 61 -97 64 -129 1 -11 8
-20 17 -20 13 0 15 19 15 130 l0 130 -377 0 c-222 0 -379 -4 -383 -9z"/>
<path d="M2380 2816 c0 -9 7 -12 19 -9 17 4 16 -8 -18 -177 l-37 -181 25 3
c21 3 26 11 36 55 17 76 86 162 129 163 19 0 19 -7 1 -100 -2 -14 -9 -46 -13
-72 l-9 -48 43 0 c24 0 44 5 44 10 0 6 -7 10 -16 10 -17 0 -17 15 1 100 3 14
8 49 11 77 6 49 5 53 -17 61 -35 13 -58 3 -106 -44 -48 -49 -48 -49 -29 38 8
35 16 78 20 96 l6 32 -45 0 c-32 0 -45 -4 -45 -14z"/>
<path d="M5994 2816 c2 -6 9 -10 16 -8 13 3 11 -31 -5 -108 -15 -73 -36 -177
-39 -195 -2 -11 -6 -27 -8 -35 -4 -18 69 -27 85 -11 8 8 5 11 -11 11 -24 0
-26 7 -12 65 5 22 11 54 14 70 3 17 8 41 11 55 3 14 7 36 10 50 2 14 9 47 14
73 l9 48 -44 -2 c-26 -2 -43 -7 -40 -13z"/>
<path d="M8046 2803 c-88 -26 -158 -123 -158 -219 -1 -93 37 -136 120 -139 55
-2 121 16 133 36 7 14 1 14 -52 1 -55 -14 -64 -14 -95 1 -42 20 -57 56 -50
117 8 76 45 142 96 171 34 18 48 20 93 13 31 -5 37 -10 37 -31 0 -35 23 -24
31 15 6 28 3 33 -15 37 -52 10 -99 10 -140 -2z"/>
<path d="M2049 2795 c-5 -38 -3 -55 6 -57 6 -2 11 7 13 20 4 24 4 24 57 24 19
0 39 -1 43 -1 5 -1 -5 -68 -22 -150 -27 -136 -32 -151 -55 -163 -24 -12 -22
-13 38 -16 36 -2 69 2 74 7 8 8 4 11 -11 11 -12 0 -22 6 -22 13 0 10 15 92 34
182 2 11 7 39 11 63 7 46 15 53 61 54 48 1 51 -1 46 -27 -3 -20 -1 -24 12 -19
9 3 16 11 16 18 0 6 3 20 6 31 5 19 0 20 -150 20 -99 0 -156 -3 -157 -10z"/>
<path d="M3125 2802 c-11 -12 -4 -24 11 -18 19 7 17 -10 -15 -169 -31 -149
-29 -145 -51 -145 -11 0 -20 -4 -20 -10 0 -6 47 -10 120 -10 89 0 120 3 120
13 0 6 3 22 6 35 5 16 2 22 -10 22 -9 0 -16 -8 -16 -20 0 -22 -2 -23 -77 -24
-46 -1 -52 1 -48 16 12 42 15 55 20 88 4 29 14 78 20 100 1 3 5 26 9 53 7 37
12 47 28 47 11 0 18 5 16 12 -4 12 -102 20 -113 10z"/>
<path d="M5094 2798 c-3 -5 2 -11 10 -14 16 -6 16 -24 -5 -124 -5 -25 -13 -69
-19 -98 -14 -80 -19 -92 -41 -92 -10 0 -19 -4 -19 -10 0 -6 28 -10 65 -10 37
0 65 4 65 10 0 6 -8 10 -19 10 -18 0 -18 4 -6 66 11 60 28 89 45 79 4 -2 24
-40 45 -85 35 -71 42 -80 66 -80 32 0 46 15 24 24 -13 5 -75 125 -75 144 0 4
14 15 30 24 65 37 82 113 33 145 -26 17 -190 26 -199 11z m161 -34 c11 -12 14
-25 9 -48 -9 -43 -28 -62 -75 -74 -45 -12 -46 -10 -28 81 11 55 13 57 45 57
18 0 40 -7 49 -16z"/>
<path d="M6300 2793 c0 -7 7 -13 15 -13 19 0 19 8 -10 -145 -32 -164 -33 -165
-56 -165 -10 0 -19 -4 -19 -10 0 -6 48 -10 125 -10 101 0 125 3 125 14 0 8 3
21 6 30 4 11 1 16 -10 16 -9 0 -16 -8 -16 -18 0 -15 -9 -17 -67 -17 -38 1 -67
5 -67 10 8 69 29 135 43 136 9 0 26 2 39 3 16 2 22 -3 22 -16 0 -10 4 -18 9
-18 10 0 18 20 26 59 5 26 -12 37 -19 13 -4 -13 -16 -18 -40 -17 -19 0 -37 3
-41 6 -3 4 -1 34 6 68 13 63 14 63 69 63 53 0 62 -2 57 -16 -3 -8 0 -17 8 -19
12 -5 24 19 25 48 0 7 -43 10 -115 10 -85 0 -115 -3 -115 -12z"/>
<path d="M4774 2753 c-2 -7 -6 -19 -8 -27 -3 -8 -14 -16 -26 -18 -11 -2 -20
-7 -20 -13 1 -5 10 -9 20 -7 23 4 23 6 11 -36 -13 -44 -24 -131 -22 -169 2
-37 82 -51 95 -16 5 12 1 14 -13 10 -36 -9 -44 16 -28 88 4 17 9 44 12 60 3
17 7 37 9 45 2 9 16 16 34 18 40 4 42 22 2 22 -27 0 -29 2 -24 29 6 26 4 30
-16 28 -12 -1 -24 -7 -26 -14z"/>
<path d="M6850 2760 c-6 -4 -12 -17 -13 -28 -1 -17 -8 -22 -29 -22 -15 0 -28
-4 -28 -10 0 -5 8 -10 18 -10 28 0 30 -6 20 -58 -5 -26 -11 -58 -13 -72 -2
-14 -6 -35 -9 -47 -5 -24 20 -61 44 -64 32 -3 48 2 54 17 4 10 0 15 -12 13
-43 -4 -45 6 -26 106 18 94 23 105 54 105 17 0 30 5 30 10 0 6 -13 10 -30 10
-27 0 -29 2 -24 28 6 29 -10 38 -36 22z"/>
<path d="M7343 2763 c-7 -2 -13 -16 -13 -29 0 -20 -5 -24 -30 -24 -16 0 -30
-4 -30 -10 0 -9 22 -15 43 -11 5 1 6 -6 3 -16 -5 -18 -10 -42 -22 -118 -3 -22
-7 -42 -9 -43 -2 -2 1 -16 6 -32 14 -39 80 -49 93 -13 4 11 2 14 -9 9 -28 -10
-43 4 -39 37 18 134 34 181 60 176 19 -3 34 2 34 11 0 6 -13 10 -30 10 -27 0
-29 2 -23 30 6 30 -3 36 -34 23z"/>
<path d="M2776 2705 c-72 -25 -116 -88 -116 -167 0 -62 26 -91 80 -90 42 1
115 35 125 59 3 11 -4 9 -28 -5 -57 -36 -112 -29 -123 14 -8 30 -5 33 30 40
73 13 126 57 126 105 0 45 -38 63 -94 44z m44 -55 c0 -32 -38 -66 -83 -74 -21
-4 -25 -1 -22 14 16 83 105 133 105 60z"/>
<path d="M3505 2710 c-71 -12 -139 -99 -149 -190 -7 -68 42 -93 102 -52 20 13
40 30 44 36 10 17 40 52 35 41 -3 -6 -8 -29 -12 -53 l-6 -42 46 0 c25 0 45 5
45 10 0 6 -9 10 -20 10 -24 0 -24 -10 4 127 l23 111 -41 4 c-23 1 -54 1 -71
-2z m44 -29 c21 -2 4 -67 -30 -117 -57 -84 -109 -103 -109 -40 1 80 55 166
102 161 13 -1 29 -3 37 -4z"/>
<path d="M3843 2700 c-16 -10 -44 -35 -61 -56 l-32 -38 10 34 c18 62 14 70
-29 70 -24 0 -41 -5 -44 -14 -4 -10 0 -12 15 -8 19 5 21 2 14 -29 -4 -19 -9
-45 -12 -59 -2 -14 -7 -36 -9 -50 -3 -14 -7 -34 -9 -45 -2 -11 -6 -27 -8 -35
-2 -10 5 -15 21 -15 21 0 26 7 36 51 17 75 75 149 124 156 27 3 48 43 27 51
-8 3 -27 -3 -43 -13z"/>
<path d="M4044 2709 c-80 -22 -165 -170 -133 -231 26 -48 102 -31 144 33 11
16 23 29 26 29 8 0 -16 -112 -30 -139 -10 -19 -20 -22 -54 -20 -23 2 -57 12
-75 22 l-32 19 10 -26 c5 -14 6 -26 2 -27 -4 0 2 -4 13 -9 56 -24 151 -1 179
43 17 24 38 115 62 257 3 19 8 38 11 43 2 4 -11 7 -29 8 -18 0 -40 2 -48 3 -8
2 -29 -1 -46 -5z m52 -29 c17 0 10 -64 -12 -97 -27 -42 -93 -105 -106 -101
-21 8 -16 97 8 143 21 41 59 69 82 60 8 -3 20 -5 28 -5z"/>
<path d="M4349 2710 c-67 -19 -114 -71 -128 -142 -19 -106 54 -152 157 -99 36
18 63 51 43 51 -5 0 -11 -5 -13 -10 -2 -6 -21 -17 -43 -24 -47 -17 -82 -5 -91
31 -8 28 -3 35 30 38 66 8 126 61 126 113 0 33 -39 53 -81 42z m31 -54 c0 -33
-26 -63 -66 -76 -19 -7 -38 -10 -41 -7 -2 3 4 26 16 51 28 63 91 86 91 32z"/>
<path d="M4550 2704 c-59 -25 -57 -84 5 -144 50 -49 43 -90 -16 -90 -27 0 -54
21 -42 33 3 4 -2 7 -13 7 -14 0 -20 -8 -22 -24 -1 -20 4 -26 31 -32 84 -21
151 13 141 70 -3 17 -17 45 -33 61 -50 55 -53 62 -41 84 14 28 60 28 67 1 3
-11 11 -20 18 -20 15 0 28 41 16 53 -13 13 -79 14 -111 1z"/>
<path d="M5496 2705 c-20 -7 -47 -21 -58 -32 -31 -28 -59 -90 -60 -132 -1 -67
28 -95 94 -93 33 1 105 39 113 59 3 10 -7 7 -31 -8 -43 -26 -91 -27 -110 -2
-16 21 -18 52 -4 54 6 1 13 2 18 3 4 1 22 6 40 10 44 10 92 60 92 96 0 46 -37
64 -94 45z m44 -55 c0 -15 -8 -34 -19 -44 -19 -17 -81 -39 -89 -31 -2 2 6 25
18 50 32 67 90 83 90 25z"/>
<path d="M5763 2705 c-67 -29 -126 -119 -126 -193 0 -47 22 -73 57 -66 28 5
79 43 105 78 13 17 21 23 18 14 -3 -9 -9 -33 -13 -52 l-6 -36 46 0 c25 0 46 5
46 10 0 6 -9 10 -20 10 -24 0 -24 -11 4 125 13 61 23 111 22 111 -6 9 -112 8
-133 -1z m66 -24 c10 -1 11 -10 6 -37 -8 -45 -28 -78 -77 -127 -59 -60 -80
-38 -58 61 14 64 55 111 91 107 13 -1 30 -3 38 -4z"/>
<path d="M6635 2712 c-45 -9 -69 -52 -51 -92 6 -14 25 -41 43 -60 48 -51 40
-90 -18 -90 -28 0 -54 22 -41 35 4 4 -2 6 -13 3 -11 -2 -21 -13 -23 -25 -3
-22 3 -25 83 -37 23 -4 66 16 84 38 18 22 5 69 -29 104 -42 45 -54 70 -39 88
18 21 60 18 66 -6 3 -11 12 -20 19 -20 8 0 14 9 14 20 0 11 0 22 0 25 0 3 -1
5 -2 5 -2 1 -19 4 -38 8 -19 5 -44 6 -55 4z"/>
<path d="M7072 2696 c-51 -26 -85 -68 -105 -127 -16 -47 -16 -57 -3 -96 16
-48 96 -24 150 45 16 20 26 28 22 18 -4 -11 -9 -34 -12 -53 l-5 -33 45 0 c25
0 46 5 46 10 0 6 -9 10 -20 10 -23 0 -23 2 -10 50 5 19 12 53 15 76 3 22 10
55 15 73 10 36 8 37 -57 44 -29 3 -53 -2 -81 -17z m77 -15 c36 -2 -25 -133
-85 -180 -51 -40 -70 7 -38 99 21 61 55 91 94 84 8 -1 21 -3 29 -3z"/>
<path d="M7575 2704 c-69 -23 -115 -91 -115 -168 0 -59 26 -89 80 -88 42 1
115 35 125 59 3 11 -4 9 -28 -5 -57 -36 -112 -29 -123 14 -8 30 -5 33 30 40
73 13 126 57 126 105 0 46 -38 63 -95 43z m45 -54 c0 -32 -38 -66 -83 -74 -21
-4 -25 -1 -22 14 16 83 105 133 105 60z"/>
<path d="M8345 2704 c-93 -32 -148 -166 -93 -227 30 -34 65 -39 116 -17 111
50 142 237 42 252 -16 3 -46 -1 -65 -8z m61 -39 c18 -28 17 -87 -4 -130 -19
-39 -34 -53 -65 -60 -66 -17 -73 124 -10 190 27 29 60 29 79 0z"/>
<path d="M8692 2700 c-16 -10 -41 -33 -55 -51 -24 -30 -27 -32 -27 -12 0 12 4
33 10 47 9 25 9 26 -35 26 -24 0 -47 -4 -50 -10 -3 -5 3 -10 15 -10 23 0 23 0
0 -110 -7 -30 -14 -72 -17 -93 -5 -36 -3 -38 18 -35 18 2 25 13 34 55 16 71
85 162 124 163 11 0 12 -11 8 -47 -8 -59 -15 -98 -27 -140 -8 -30 -7 -33 15
-33 28 0 31 4 39 53 8 50 26 84 70 130 52 53 70 50 63 -10 -4 -27 -9 -59 -12
-73 -3 -14 -8 -38 -11 -54 -2 -16 -7 -33 -10 -38 -3 -5 16 -8 43 -6 27 2 46 7
43 13 -2 6 -11 9 -18 7 -12 -3 -13 5 -7 35 35 186 34 174 14 194 -26 26 -69 9
-115 -44 l-35 -42 2 36 c2 19 0 40 -4 46 -12 20 -45 21 -75 3z"/>
<path d="M9191 2712 c-13 -2 -47 -27 -75 -55 -27 -29 -47 -47 -43 -40 4 6 10
30 13 52 l6 41 -41 0 c-22 0 -43 -4 -46 -10 -3 -5 3 -10 14 -10 25 0 24 6 6
-83 -8 -40 -17 -85 -20 -102 -2 -16 -7 -41 -10 -55 -3 -14 -8 -42 -11 -62 -5
-34 -4 -37 17 -33 12 2 23 6 25 7 3 3 12 52 13 74 1 6 18 11 39 11 55 1 85 17
125 65 79 97 72 215 -12 200z m13 -49 c11 -36 -24 -144 -55 -170 -18 -15 -65
-24 -85 -16 -48 18 64 195 128 202 4 1 9 -7 12 -16z"/>
<path d="M9428 2706 c-73 -38 -127 -110 -132 -179 -9 -110 87 -106 168 8 13
18 14 16 6 -20 -15 -64 -14 -65 35 -65 25 0 45 5 45 10 0 6 -9 10 -20 10 -23
0 -23 -9 8 145 11 50 18 91 18 92 -6 9 -110 8 -128 -1z m64 -25 c5 0 6 -17 3
-37 -7 -61 -106 -177 -134 -160 -23 14 -8 100 27 164 18 32 50 43 104 33z"/>
<path d="M9811 2712 c-13 -2 -43 -23 -67 -48 -45 -45 -51 -43 -35 14 l10 32
-44 0 c-24 0 -47 -4 -50 -10 -3 -5 3 -10 14 -10 12 0 21 -1 21 -3 0 -4 -18
-99 -25 -137 -3 -14 -8 -38 -11 -54 -2 -16 -7 -33 -10 -38 -4 -5 6 -8 22 -6
24 3 29 9 39 54 19 86 112 190 142 160 6 -6 -22 -172 -34 -203 -4 -10 7 -13
42 -13 33 0 45 4 42 13 -2 6 -10 11 -16 10 -13 -4 -14 19 -1 72 6 22 13 65 16
97 5 48 4 57 -12 65 -11 5 -30 7 -43 5z"/>
<path d="M9930 2701 c0 -6 4 -11 10 -11 11 0 29 -31 36 -61 2 -10 7 -29 10
-41 3 -13 8 -48 11 -79 l5 -57 -46 -44 c-25 -25 -46 -47 -46 -50 0 -3 11 -4
25 -4 17 1 34 14 52 41 22 33 73 101 122 161 45 56 82 117 79 131 -2 11 -14
19 -29 21 -23 3 -25 0 -21 -30 3 -27 -5 -46 -47 -103 -35 -47 -51 -63 -51 -50
-1 35 -11 91 -24 136 -12 41 -16 44 -50 47 -21 2 -36 -1 -36 -7z"/>
</g>
</svg>
